# xmcd
#
# Track frame offsets:
#	150
#	13424
#	31602
#	47135
#	62613
#	78900
#	97258
#
# Disc length: 1508 seconds
#
# Revision: 0
# Processed by: cddbd v1.5.1PL2 Copyright (c) Steve Scherf et al.
# Submitted via: dBpowerAMP V4.0
#
DISCID=5205e207
DTITLE=Amy Dalley - Album Preview
DYEAR=2004
DGENRE=Country
TTITLE0=That's What I Tell Myself
TTITLE1=Safe (A Parents Prayer)
TTITLE2=Talk
TTITLE3=Let's Try Goodbye
TTITLE4=Don't Bet The Farm On Romeo
TTITLE5=I Think You're Beautiful
TTITLE6=Love's Got An Attitude (It Is What It Is)
EXTD=
EXTT0=
EXTT1=
EXTT2=
EXTT3=
EXTT4=
EXTT5=
EXTT6=
PLAYORDER=
